<?xml version="1.0" standalone="no"?>
<!DOCTYPE svg PUBLIC "-//W3C//DTD SVG 20010904//EN"
 "http://www.w3.org/TR/2001/REC-SVG-20010904/DTD/svg10.dtd">
<svg version="1.0" xmlns="http://www.w3.org/2000/svg"
 width="512.000000pt" height="512.000000pt" viewBox="0 0 512.000000 512.000000"
 preserveAspectRatio="xMidYMid meet">
<metadata>
Created by potrace 1.14, written by Peter Selinger 2001-2017
</metadata>
<g transform="translate(0.000000,512.000000) scale(0.100000,-0.100000)"
fill="#000000" stroke="none">
<path d="M2319 4796 c-2 -2 -29 -7 -59 -10 -234 -28 -521 -153 -705 -307 -170
-143 -271 -274 -407 -529 -31 -58 -70 -130 -87 -160 -35 -63 -37 -81 -14 -120
16 -28 16 -29 -33 -107 -49 -76 -51 -78 -91 -79 -47 0 -51 -4 -118 -99 -47
-68 -160 -219 -180 -241 -5 -6 -28 -33 -50 -59 -22 -27 -45 -53 -50 -59 -6 -6
-33 -38 -60 -71 -28 -33 -53 -62 -56 -65 -9 -8 -121 -170 -142 -205 -49 -83
-140 -281 -168 -365 -35 -107 -75 -285 -86 -387 -10 -88 -10 -332 -1 -403 15
-114 21 -138 59 -254 42 -124 68 -181 127 -281 225 -377 625 -638 1047 -682
110 -12 359 -5 475 12 152 23 326 64 446 104 l143 47 82 -33 c298 -120 666
-164 979 -119 14 2 45 7 70 10 24 4 60 11 80 16 19 5 46 11 60 14 98 18 317
104 452 178 79 42 242 148 258 167 3 3 25 22 50 42 138 112 174 163 149 211
-9 17 0 30 59 90 62 62 72 69 91 59 37 -20 73 -1 149 76 225 231 336 511 327
828 -2 66 -5 131 -8 145 -60 356 -271 648 -586 813 -164 86 -330 125 -518 124
-62 0 -115 1 -117 4 -2 2 -6 89 -7 193 -1 104 -6 214 -11 245 -5 31 -10 67
-12 81 -6 39 -35 149 -57 215 -44 131 -164 344 -253 450 -50 59 -162 167 -216
208 -30 23 -57 44 -60 47 -10 11 -116 74 -186 111 -82 43 -254 103 -339 118
-33 6 -71 14 -85 17 -27 6 -335 15 -341 10z"/>
</g>
</svg>
